PathFileType	4	(X/Y/Z)	Demo_SinglePerson_0-99.trc
DataRate	CameraRate	NumFrames	NumMarkers	Units	OrigDataRate	OrigDataStartFrame	OrigNumFrames
60	60	6	22	m	60	25	100
Frame#	Time	Hip			RHip			RKnee			RAnkle			RBigToe			RSmallToe			RHeel			LHip			LKnee			LAnkle			LBigToe			LSmallToe			LHeel			Neck			Head			Nose			RShoulder			RElbow			RWrist			LShoulder			LElbow			LWrist			
		X1	Y1	Z1	X2	Y2	Z2	X3	Y3	Z3	X4	Y4	Z4	X5	Y5	Z5	X6	Y6	Z6	X7	Y7	Z7	X8	Y8	Z8	X9	Y9	Z9	X10	Y10	Z10	X11	Y11	Z11	X12	Y12	Z12	X13	Y13	Z13	X14	Y14	Z14	X15	Y15	Z15	X16	Y16	Z16	X17	Y17	Z17	X18	Y18	Z18	X19	Y19	Z19	X20	Y20	Z20	X21	Y21	Z21	X22	Y22	Z22	
25	0.4166666666666667	-0.07408369025679762	0.9158704091167914	-1.2112296882660611	-0.15745261724915618	0.9509362663366246	-1.2125582896415004	-0.36789860661945367	0.5962433018408277	-1.077729065616241	-0.30850224167200807	0.24211462404477252	-1.2883823463105406	-0.3835250729784824	0.1476550436784003	-1.1346549513291422	-0.40893380744962216	0.16698345877283594	-1.2147924859729398	-0.28229654020179196	0.20346629011815212	-1.3367326232112373	0.01614443778628145	0.882558991195045	-1.1692398467803649	-0.058369725775292834	0.5008930945039279	-1.0178319176875794	-0.016536205667249577	0.15083708167501933	-1.1547547316692512	-0.06775445840586773	0.07303846778937913	-0.9921931625330366	0.01927841097156307	0.07625135553151216	-1.0305201342014725	-0.004465645861837704	0.10271322812980749	-1.199534385682726	0.18212897593866997	1.4062525588702792	-1.1496819666797586	0.25516373925117347	1.6152153472960504	-1.0039085569573383	0.18598177658117165	1.4715076296419332	-0.9735692554167998	0.0019634765314049175	1.430904459692651	-1.2519962066438737	-0.2556148040279714	1.3783153709652034	-1.3221185523179328	-0.35577220226722034	1.4508644269946784	-1.0913413509509888	0.3101177387149755	1.261032895572941	-1.1606738120733593	0.34029775877673696	0.9755647265133521	-1.147491479483524	0.33214379037307423	0.7274291414649413	-1.0850214807953649
26	0.43333333333333335	-0.07733942856655612	0.915358663635319	-1.1984113167062018	-0.1608953980265405	0.9496854794898408	-1.1953969745253814	-0.3808084868994433	0.6056111102546221	-1.0665476323058523	-0.34596931515002516	0.24107201004221204	-1.2652855093007565	-0.4217476532101236	0.1531144796716259	-1.1024097794084446	-0.44359723858305095	0.16945089689124695	-1.1884692134383725	-0.31981708345474613	0.19723578404207198	-1.3085020181113525	0.012802423974451946	0.8768415922797786	-1.1596779674142101	-0.05788773328120906	0.5016974793598048	-1.014349294562787	-0.016401528424057107	0.15153778602320583	-1.154357488010012	-0.045617267636305144	0.08441246235652505	-0.9780500511296694	0.005240367827241394	0.07438448381234038	-1.0119900203307195	-0.000868308350800852	0.1068031122527899	-1.1993033371015533	0.18898173980779118	1.3995870514347508	-1.1416527135578243	0.26772891653160424	1.6178422212888324	-0.9729160764072893	0.18649420347421097	1.4808237540465063	-0.9479133356545145	0.0064939145336081515	1.4288295299786402	-1.244196060270183	-0.24661865215422946	1.3833436584782641	-1.3168168602311017	-0.35137218195090103	1.4618856378352978	-1.0858284204178303	0.3136863282822476	1.2537393131769001	-1.1549718928156343	0.34138720522278027	0.9708138098344905	-1.1437171880870978	0.3338510744584711	0.7211812011588997	-1.0735071796958504
27	0.45	-0.07953048446337684	0.9153254455273097	-1.190139596122219	-0.16365658086492177	0.9497480738375581	-1.186543160803749	-0.3989139841720565	0.612713807873893	-1.0532045092595004	-0.38133457069583576	0.24071709818780007	-1.2440178378525883	-0.463739943083125	0.15452207154917152	-1.0803396499027367	-0.4834908300757485	0.16968469824876184	-1.1602750620904647	-0.3560151241951256	0.19734789739044906	-1.288403695467494	0.00908069140498024	0.87468546456014	-1.1534310844719746	-0.05782429609056981	0.4967946541021479	-1.0055762171466551	-0.016269213243740744	0.14943451811136677	-1.1541543475923808	-0.04300524072019153	0.08349876518276303	-0.9820831343440338	0.00970904719165167	0.07443450835164403	-1.0201386915662312	-0.0014885769412773496	0.102250458262005	-1.1992608067966588	0.1925118134081427	1.395934484291859	-1.1344458340169532	0.2820533754495853	1.6110006757478366	-0.9611552035318668	0.2099890436435501	1.4545418901022311	-0.9445466322686412	0.0062933985708800155	1.4291736046460466	-1.2339674923076112	-0.24685688755553328	1.3898631562807713	-1.3104939260806763	-0.3428612015224742	1.4796741310190777	-1.0840402123221873	0.3154102737053626	1.2461116953130233	-1.1493108979913766	0.3419903937312273	0.9646393081282838	-1.1355864314321418	0.33171995241214464	0.7187918799654813	-1.0662509227224055
28	0.4666666666666667	-0.08235923304806424	0.9136910226253167	-1.1783920653856825	-0.16706295983715805	0.9506071698596419	-1.1675325677376578	-0.4130409211543435	0.6248822463443878	-1.0445252340414848	-0.41973213758099326	0.25032066308085316	-1.2230436418364228	-0.49828504382322536	0.15125055721985226	-1.078491237834626	-0.5251120694743309	0.1648363881062698	-1.1473687972570652	-0.3941984187881186	0.20080508449785167	-1.2685943227336567	0.0038723745459704395	0.8808057952009186	-1.1460354247324345	-0.05431213965703166	0.4901918823998095	-0.9979725487251541	-0.01683251045827274	0.1550387150729136	-1.1557552878959492	-0.03229884169546298	0.08784871497351486	-1.0096539790417207	0.024831121350979753	0.0789736177011767	-1.0452616735964788	-0.006093892132742005	0.10340985151258003	-1.1986731936446604	0.19061387822030162	1.3821572324538158	-1.1240196065015193	0.28914888686251045	1.604680834524833	-0.948004393511383	0.2306925168881102	1.4237875503180897	-0.9841513135496015	0.011663764823671454	1.420635992938545	-1.216599779334574	-0.24448031496381162	1.3961896466219526	-1.3010826792743366	-0.33874764883667463	1.4903294468785324	-1.082923200177737	0.3198591124711567	1.2332696226130413	-1.1400107850396997	0.3404499696427048	0.9519776326519805	-1.125925965599496	0.32340750424242504	0.7032347389573173	-1.052482437145638
29	0.48333333333333334	-0.08473964239299211	0.91277835807351	-1.1693429270323479	-0.17093473670493736	0.9523544380910064	-1.1655742511869343	-0.4247746309934484	0.6257398782796659	-1.0348522005307046	-0.45683744317818026	0.2560726130752228	-1.2067349815022061	-0.5362248988974396	0.17139520766747368	-1.047839849376075	-0.5589472663915143	0.18754398412217155	-1.1227329770842396	-0.434302529325436	0.21170463078747348	-1.2457438932259108	0.0027826876771095592	0.8690668585532418	-1.1330214952838398	-0.05978369273210903	0.49077131639915006	-0.9878732308872858	-0.01730947208117061	0.1484671704110577	-1.1568080834297496	-0.035741298467665744	0.08197033582921702	-0.9901595207607929	0.018565159678381238	0.07234083638858607	-1.028312279397123	-0.008409929270555318	0.10257290214353709	-1.2025547431065657	0.20249359732836333	1.382473263364968	-1.121760495971458	0.29588868094177356	1.5837139115456709	-0.9749546447823457	0.23043740133459523	1.4424170383237962	-0.943981991612255	0.023067968456445348	1.422854711509778	-1.2241951729032279	-0.2313631673299885	1.3969926154975294	-1.2983513048420234	-0.3234974932885392	1.5010222112596492	-1.076808612250292	0.324800070638878	1.2305221816368432	-1.1385652554978791	0.3433183421411435	0.9509265859566953	-1.1226764921233259	0.3260098338458658	0.7001374512149778	-1.0445753303216772
30	0.5	-0.09016878957479887	0.9140673678923757	-1.1571168758596209	-0.17323645656086376	0.9559160557628621	-1.1538105929552427	-0.43153125303583617	0.6345365365401197	-1.023102094529489	-0.4895712168154308	0.26189294775944144	-1.188338981173764	-0.561864912888689	0.1859505409100565	-1.026869273140968	-0.590139124417085	0.200267562918746	-1.1011138293013008	-0.4742805407936111	0.2160764513244239	-1.2254132214679792	-0.003081785395907971	0.8687935158187361	-1.1262235075428146	-0.06546886572069889	0.5070243216181339	-0.9531608815439263	-0.017190930973466183	0.14992505983621476	-1.1485168813887647	-0.030795077452787714	0.07907837813476411	-0.9889988511187165	0.018969158040849487	0.07256457022731516	-1.0253356321311018	-0.006380750084651161	0.10383766194448854	-1.1972895639951313	0.20470007386772177	1.3749354135012226	-1.1164550721808495	0.3049640099050526	1.5909112055240473	-0.9409744568937946	0.24520354604509864	1.4111540353604015	-0.9607439887419076	0.02610933901096956	1.4214368026323738	-1.2147252905382517	-0.23016646153380912	1.402377871451797	-1.2854242795357236	-0.3193530569070222	1.516700869801466	-1.0647129345417072	0.32482614496170403	1.2247337886653946	-1.1336427775075284	0.3435196750432	0.943445914491705	-1.1138071320227148	0.3238964055290897	0.692233415770651	-1.0331988684688191
